<svg width="200" height="200" viewBox="0 0 200 200" xmlns="http://www.w3.org/2000/svg">
  <!-- Background Shield -->
  <defs>
    <linearGradient id="shieldGradient" x1="0%" y1="0%" x2="100%" y2="100%">
      <stop offset="0%" stop-color="#00B4D8" />
      <stop offset="100%" stop-color="#0077B6" />
    </linearGradient>
    <filter id="glow" x="-20%" y="-20%" width="140%" height="140%">
      <feGaussianBlur stdDeviation="5" result="blur" />
      <feComposite in="SourceGraphic" in2="blur" operator="over" />
    </filter>
  </defs>
  
  <!-- Network Structure -->
  <g filter="url(#glow)">
    <!-- Outer Network Structure -->
    <path d="M100,20 L140,40 L140,80 L100,100 L60,80 L60,40 Z" fill="none" stroke="#0096C7" stroke-width="4" />
    <path d="M100,20 L160,50 L160,100 L100,130 L40,100 L40,50 Z" fill="none" stroke="#0096C7" stroke-width="4" />
    <path d="M100,20 L180,60 L180,120 L100,160 L20,120 L20,60 Z" fill="none" stroke="#0096C7" stroke-width="4" />
    
    <!-- Connection Lines -->
    <line x1="100" y1="20" x2="100" y2="100" stroke="#0096C7" stroke-width="3" />
    <line x1="60" y1="40" x2="60" y2="80" stroke="#0096C7" stroke-width="3" />
    <line x1="140" y1="40" x2="140" y2="80" stroke="#0096C7" stroke-width="3" />
    <line x1="40" y1="50" x2="40" y2="100" stroke="#0096C7" stroke-width="3" />
    <line x1="160" y1="50" x2="160" y2="100" stroke="#0096C7" stroke-width="3" />
    <line x1="20" y1="60" x2="20" y2="120" stroke="#0096C7" stroke-width="3" />
    <line x1="180" y1="60" x2="180" y2="120" stroke="#0096C7" stroke-width="3" />
    
    <!-- Connection Nodes -->
    <circle cx="100" cy="20" r="8" fill="#00B4D8" />
    <circle cx="60" cy="40" r="8" fill="#00B4D8" />
    <circle cx="140" cy="40" r="8" fill="#00B4D8" />
    <circle cx="60" cy="80" r="8" fill="#00B4D8" />
    <circle cx="140" cy="80" r="8" fill="#00B4D8" />
    <circle cx="100" cy="100" r="8" fill="#00B4D8" />
    <circle cx="40" cy="50" r="8" fill="#00B4D8" />
    <circle cx="160" cy="50" r="8" fill="#00B4D8" />
    <circle cx="40" cy="100" r="8" fill="#00B4D8" />
    <circle cx="160" cy="100" r="8" fill="#00B4D8" />
    <circle cx="20" cy="60" r="8" fill="#00B4D8" />
    <circle cx="180" cy="60" r="8" fill="#00B4D8" />
    <circle cx="20" cy="120" r="8" fill="#00B4D8" />
    <circle cx="180" cy="120" r="8" fill="#00B4D8" />
    <circle cx="100" cy="160" r="8" fill="#00B4D8" />
  </g>
  
  <!-- Central Shield -->
  <g transform="translate(70, 75) scale(0.6)">
    <path d="M100,20 L160,50 L160,100 L100,140 L40,100 L40,50 Z" fill="url(#shieldGradient)" stroke="#0096C7" stroke-width="4" />
    <path d="M85,70 L115,70 L115,100 L100,110 L85,100 Z" fill="#FFFFFF" fill-opacity="0.7" />
    <path d="M95,60 L105,60 L105,75 L95,75 Z" fill="#FFFFFF" fill-opacity="0.7" />
  </g>
</svg>